<?xml version="1.0" standalone="yes"?>
<svg xmlns="http://www.w3.org/2000/svg" width="16" height="16">
<path style="fill:#a9dafc; stroke:none;" d="M0 0L0 5L1 5C3.76494 3.17317 5.92132 3.7603 7 7L5 4L3 4L2 7L11 12L12 12L11 3L16 3L16 0L0 0z"/>
<path style="fill:#7b9cb3; stroke:none;" d="M1 3L3 5L1 3z"/>
<path style="fill:#3f4951; stroke:none;" d="M2 3L3 4L2 3z"/>
<path style="fill:#2a2d2f; stroke:none;" d="M3.66667 3.33333L4.33333 3.66667L3.66667 3.33333z"/>
<path style="fill:#5a6f7d; stroke:none;" d="M5.33333 3.66667L5.66667 4.33333L5.33333 3.66667z"/>
<path style="fill:#7b9cb3; stroke:none;" d="M11 3L13 5L11 3z"/>
<path style="fill:#3f4951; stroke:none;" d="M12 3L12 4L15 5L12 3z"/>
<path style="fill:#5a6f7d; stroke:none;" d="M15 3L16 4L15 3z"/>
<path style="fill:#2a2d2f; stroke:none;" d="M1 4L2 5L1 4z"/>
<path style="fill:#3f4951; stroke:none;" d="M6 4L7 5L6 4z"/>
<path style="fill:#5a6f7d; stroke:none;" d="M13 4L13 11L15 11L13 4z"/>
<path style="fill:#a9dafc; stroke:none;" d="M15 4C14.9527 8.00239 14.1996 14.4404 9 11L8 11L7 11L0 12L0 16L16 16L15 4z"/>
<path style="fill:#7b9cb3; stroke:none;" d="M0.333333 5.66667L0.666667 6.33333L0.333333 5.66667z"/>
<path style="fill:#3f4951; stroke:none;" d="M1 5L2 6L1 5z"/>
<path style="fill:#2a2d2f; stroke:none;" d="M6 5L7 6L6 5z"/>
<path style="fill:#7b9cb3; stroke:none;" d="M7 5L8 6L7 5z"/>
<path style="fill:#2a2d2f; stroke:none;" d="M1 6L3 8L1 6z"/>
<path style="fill:#5a6f7d; stroke:none;" d="M6 6L7 7L6 6z"/>
<path style="fill:#a9dafc; stroke:none;" d="M0 7L3 12L5 12L6 9L0 7z"/>
<path style="fill:#5a6f7d; stroke:none;" d="M1 7L2 8L1 7z"/>
<path style="fill:#3f4951; stroke:none;" d="M3 7L4 8L3 7z"/>
<path style="fill:#5a6f7d; stroke:none;" d="M4.33333 7.66667L4.66667 8.33333L4.33333 7.66667z"/>
<path style="fill:#7b9cb3; stroke:none;" d="M5 7L6 8L5 7M3 8L4 9L3 8z"/>
<path style="fill:#2a2d2f; stroke:none;" d="M5 8L7 10L5 8z"/>
<path style="fill:#5a6f7d; stroke:none;" d="M6 8L7 9L6 8z"/>
<path style="fill:#7b9cb3; stroke:none;" d="M0.666667 9.33333L1.33333 9.66667L0.666667 9.33333M7 9L7 11L9 11L9 9L7 9z"/>
<path style="fill:#5a6f7d; stroke:none;" d="M9 9L10 10L9 9M0.666667 10.3333L1.33333 10.6667L0.666667 10.3333z"/>
<path style="fill:#3f4951; stroke:none;" d="M6 10L7 11L6 10z"/>
<path style="fill:#2a2d2f; stroke:none;" d="M9.33333 10.6667L9.66667 11.3333L9.33333 10.6667z"/>
<path style="fill:#7b9cb3; stroke:none;" d="M0 11L0 12L3 12L3 11L0 11z"/>
<path style="fill:#2a2d2f; stroke:none;" d="M1 11L2 12L1 11z"/>
<path style="fill:#7b9cb3; stroke:none;" d="M5 11L7 13L5 11z"/>
<path style="fill:#2a2d2f; stroke:none;" d="M6 11L7 12L6 11z"/>
<path style="fill:#5a6f7d; stroke:none;" d="M10 11L11 12L10 11z"/>
<path style="fill:#7b9cb3; stroke:none;" d="M12 11L13 12L12 11z"/>
<path style="fill:#2a2d2f; stroke:none;" d="M13 11L11 12L11 13L13 11z"/>
<path style="fill:#7b9cb3; stroke:none;" d="M14 11L15 12L14 11z"/>
<path style="fill:#3f4951; stroke:none;" d="M2 12L3 13L2 12z"/>
<path style="fill:#2a2d2f; stroke:none;" d="M3.66667 12.3333L4.33333 12.6667L3.66667 12.3333z"/>
<path style="fill:#3f4951; stroke:none;" d="M5 12L6 13L5 12z"/>
<path style="fill:#7b9cb3; stroke:none;" d="M9 12L10 13L9 12z"/>
<path style="fill:#3f4951; stroke:none;" d="M10 12L11 13L10 12z"/>
<path style="fill:#5a6f7d; stroke:none;" d="M13 12L14 13L13 12z"/>
</svg>
